<?xml version="1.0" encoding="UTF-8"?>
<svg width="120px" height="120px" viewBox="0 0 120 120" version="1.1" xmlns="http://www.w3.org/2000/svg" xmlns:xlink="http://www.w3.org/1999/xlink">
    <!-- Generator: Sketch 52.6 (67491) - http://www.bohemiancoding.com/sketch -->
    <title>menu-rss</title>
    <desc>Created with Sketch.</desc>
    <g id="Page-1" stroke="none" stroke-width="1" fill="none" fill-rule="evenodd">
        <path d="M17.5,85 C27.164375,85 35,92.835625 35,102.5 C35,112.164375 27.164375,120 17.5,120 C7.835625,120 0,112.164375 0,102.5 C0,92.835625 7.835625,85 17.5,85 Z M12.8571429,0 C71.9357143,0 120,48.0642857 120,107.142857 C120,114.244286 114.244286,120 107.142857,120 C100.041429,120 94.2857143,114.244286 94.2857143,107.142857 C94.2857143,62.2414286 57.7585714,25.7142857 12.8571429,25.7142857 C5.75571429,25.7142857 0,19.9585714 0,12.8571429 C0,5.75571429 5.75571429,0 12.8571429,0 Z M12.8333333,43 C48.2148333,43 77,71.7851667 77,107.166667 C77,114.254944 71.2549444,120 64.1666667,120 C57.0783889,120 51.3333333,114.254944 51.3333333,107.166667 C51.3333333,85.9403333 34.0639444,68.6666667 12.8333333,68.6666667 C5.74505556,68.6666667 0,62.9216111 0,55.8333333 C0,48.7450556 5.74505556,43 12.8333333,43 Z" id="menu-rss" fill="#FFFFFF" fill-rule="nonzero"></path>
    </g>
</svg>