<?xml version="1.0" encoding="UTF-8"?>
<svg width="133px" height="125px" viewBox="0 0 133 125" version="1.1" xmlns="http://www.w3.org/2000/svg" xmlns:xlink="http://www.w3.org/1999/xlink">
    <!-- Generator: Sketch 52.6 (67491) - http://www.bohemiancoding.com/sketch -->
    <title>menu-comics</title>
    <desc>Created with Sketch.</desc>
    <g id="Page-1" stroke="none" stroke-width="1" fill="none" fill-rule="evenodd">
        <path d="M116.558434,0 C125.267576,0 132.33201,7.04818704 132.333333,15.7326311 L132.333333,76.7046655 C132.333333,85.4049571 125.268899,92.4438998 116.559757,92.4438998 L70.587343,92.4438998 L39.863205,123.197344 L39.855266,123.197344 C38.7768778,124.309312 37.2578722,125 35.5774392,125 C32.2906709,125 29.6231489,122.338936 29.6231489,119.065102 L29.6231489,92.4438998 L16.1069099,92.4438998 C7.39512163,92.4438998 0.333333333,85.4049571 0.333333333,76.7046655 L0.333333333,15.7326311 C0.333333333,7.04818704 7.39512163,0 16.1069099,0 L116.558434,0 Z M36.3333333,54 C40.7496653,54 44.3333333,50.4149933 44.3333333,46 C44.3333333,41.583668 40.7496653,38 36.3333333,38 C31.9170013,38 28.3333333,41.583668 28.3333333,46 C28.3333333,50.416332 31.9170013,54 36.3333333,54 Z M67.3333333,54 C71.7518835,54 75.3333333,50.4149933 75.3333333,46 C75.3333333,41.583668 71.7518835,38 67.3333333,38 C62.9147832,38 59.3333333,41.583668 59.3333333,46 C59.3333333,50.416332 62.9147832,54 67.3333333,54 Z M98.3333333,54 C102.749665,54 106.333333,50.4149933 106.333333,46 C106.333333,41.583668 102.749665,38 98.3333333,38 C93.9170013,38 90.3333333,41.583668 90.3333333,46 C90.3333333,50.416332 93.9170013,54 98.3333333,54 Z" id="menu-comics" fill="#FFFFFF" fill-rule="nonzero"></path>
    </g>
</svg>