<?xml version="1.0" encoding="UTF-8"?>
<svg width="69px" height="125px" viewBox="0 0 69 125" version="1.1" xmlns="http://www.w3.org/2000/svg" xmlns:xlink="http://www.w3.org/1999/xlink">
    <!-- Generator: Sketch 52.6 (67491) - http://www.bohemiancoding.com/sketch -->
    <title>menu-fb</title>
    <desc>Created with Sketch.</desc>
    <g id="Page-1" stroke="none" stroke-width="1" fill="none" fill-rule="evenodd">
        <path d="M66.0761536,0.0260083435 L49.7734812,0 C31.4579878,0 19.6217113,12.0743735 19.6217113,30.7626687 L19.6217113,44.9463188 L3.23010333,44.9463188 C1.81367379,44.9463188 0.666666667,46.0880851 0.666666667,47.4964369 L0.666666667,68.0469295 C0.666666667,69.4552813 1.81498166,70.5957471 3.23010333,70.5957471 L19.6217113,70.5957471 L19.6217113,122.451182 C19.6217113,123.859534 20.7687185,125 22.185148,125 L43.5715339,125 C44.9879634,125 46.1349706,123.858234 46.1349706,122.451182 L46.1349706,70.5957471 L65.3005833,70.5957471 C66.7170128,70.5957471 67.8640199,69.4552813 67.8640199,68.0469295 L67.8718672,47.4964369 C67.8718672,46.8202199 67.6011369,46.1726122 67.1211464,45.6940587 C66.641156,45.2155051 65.9872181,44.9463188 65.3071226,44.9463188 L46.1349706,44.9463188 L46.1349706,32.9226616 C46.1349706,27.1436077 47.5200111,24.2098665 55.0913044,24.2098665 L66.0735379,24.2059653 C67.4886595,24.2059653 68.6356667,23.064199 68.6356667,21.6571476 L68.6356667,2.574826 C68.6356667,1.16907504 67.4899674,0.0286091778 66.0761536,0.0260083435 Z" id="menu-fb" fill="#FFFFFF"></path>
    </g>
</svg>