<svg width="24" height="22" viewBox="0 0 24 22" fill="none" xmlns="http://www.w3.org/2000/svg">
<path d="M1.4058 0.91086C0.434074 0.88126 0.271134 2.28905 1.22391 2.4823L2.97925 2.86679C3.90778 7.30867 4.91993 11.7324 5.90142 16.1632C5.98212 16.5265 6.30439 16.785 6.67652 16.7849H20.6154C21.6893 16.8008 21.6893 15.1816 20.6154 15.1974H7.31365L6.96227 13.6104H21.3187C21.6908 13.6105 22.013 13.352 22.0938 12.9887L23.8517 5.05216C23.9613 4.55678 23.5844 4.08716 23.0771 4.08686C17.004 4.087 10.931 4.08673 4.85814 4.08386L4.42667 2.03678C4.36237 1.73126 4.12495 1.49184 3.82003 1.42493L1.56294 0.93088C1.51134 0.91898 1.45876 0.912099 1.40585 0.910799L1.4058 0.91086ZM9.98046 17.3146C8.82093 17.3146 7.86392 18.2717 7.86392 19.4313C7.86392 20.5909 8.82093 21.548 9.98046 21.548C11.14 21.548 12.097 20.5909 12.097 19.4313C12.097 18.2717 11.14 17.3146 9.98046 17.3146ZM17.3883 17.3146C16.2288 17.3146 15.2718 18.2717 15.2718 19.4313C15.2718 20.5909 16.2288 21.548 17.3883 21.548C18.5479 21.548 19.5049 20.5909 19.5049 19.4313C19.5049 18.2717 18.5479 17.3146 17.3883 17.3146Z" fill="white"/>
</svg>
