<?xml version="1.0" encoding="UTF-8"?>
<svg width="125px" height="125px" viewBox="0 0 125 125" version="1.1" xmlns="http://www.w3.org/2000/svg" xmlns:xlink="http://www.w3.org/1999/xlink">
    <!-- Generator: Sketch 52.6 (67491) - http://www.bohemiancoding.com/sketch -->
    <title>menu-insta</title>
    <desc>Created with Sketch.</desc>
    <g id="Page-1" stroke="none" stroke-width="1" fill="none" fill-rule="evenodd">
        <path d="M28.2674715,0 L96.7325285,0 C112.324834,0.0467071708 124.953293,12.6751658 125,28.2674715 L125,96.7325285 C124.953293,112.324834 112.324834,124.953293 96.7325285,125 L28.2674715,125 C12.6751658,124.953293 0.0467071708,112.324834 0,96.7325285 L0,28.2674715 C0.0467071708,12.6751658 12.6751658,0.0467071708 28.2674715,0 Z M63.003642,94 C80.1229737,93.9982388 94.0000001,80.1197848 94,63.0004532 C93.9999999,50.4620166 86.4468577,39.1582553 74.8627293,34.3603013 C63.2786009,29.5623474 49.9448928,32.2151216 41.0793354,41.0815911 C32.2137779,49.9480607 29.5623755,63.2820415 34.3615212,74.8656761 C39.1606669,86.4493107 50.4652054,94.0012899 63.003642,94 Z M101.500124,32.9999999 C103.754289,33.0004114 105.916269,32.1052365 107.51035,30.511447 C109.10443,28.9176575 110,26.7558403 110,24.5016757 C110.000627,21.0636557 107.930097,17.9638164 104.753961,16.6477082 C101.577825,15.3316 97.9216224,16.0584303 95.4903532,18.4892556 C93.0590841,20.920081 92.3315864,24.5761508 93.6471147,27.7525272 C94.9626429,30.9289036 98.0621042,32.9999998 101.500124,32.9999999 Z" id="menu-insta" fill="#FFFFFF" fill-rule="nonzero"></path>
    </g>
</svg>