<?xml version="1.0" encoding="UTF-8"?>
<svg width="106px" height="125px" viewBox="0 0 106 125" version="1.1" xmlns="http://www.w3.org/2000/svg" xmlns:xlink="http://www.w3.org/1999/xlink">
    <!-- Generator: Sketch 52.6 (67491) - http://www.bohemiancoding.com/sketch -->
    <title>menu-comics</title>
    <desc>Created with Sketch.</desc>
    <g id="Page-1" stroke="none" stroke-width="1" fill="none" fill-rule="evenodd">
        <g id="menu-comics" fill="#FFFFFF">
            <path d="M20.0320513,125 L105.769231,123.159575 L102.588907,113.782051 C91.0782598,117.818862 62.1896856,122.826829 20.0320513,125 Z" id="Path"></path>
            <path d="M32.0512821,120.99359 C56.75707,118.533941 90.4317409,113.859088 104.967949,107.198277 L99.8618519,93.75 C84.1048934,105.195854 54.1777015,114.902729 32.0512821,120.99359 Z" id="Path"></path>
            <path d="M78.0622023,-2.13162821e-14 C78.0622023,-2.13162821e-14 72.8295527,12.5190345 52.5497251,24.1741708 C38.6767086,32.1477522 16.5719487,37.5558552 16.5719487,37.5558552 L7.10542736e-15,122.596154 C7.10542736e-15,122.596154 38.2264662,111.494062 67.1580114,91.9477396 C94.6316287,73.3851623 98.5576923,63.4565742 98.5576923,63.4565742 L78.0622023,-2.13162821e-14 Z M59.3613761,59.0259745 C45.8162674,66.8110463 27.2049852,72.6823087 17.1659661,75.5286787 L23.3495478,43.7941496 C30.9506997,41.6606205 45.7822154,37.0477532 56.4909229,30.8931022 C64.8172552,26.1079547 70.8797633,21.1555205 75.2358905,16.7673667 L83.1359428,41.2236777 C77.5299829,46.7853349 69.8355036,53.0061516 59.3613761,59.0259745 Z" id="Shape" fill-rule="nonzero"></path>
            <path d="M70.1652574,96.4217659 C60.6561341,102.841539 44.2286398,110.85875 34.4551282,115.384615 C54.9585033,109.545274 89.8931779,96.7770301 101.762821,85.647505 L97.0126864,74.5192308 C92.1942415,79.7281037 83.9982045,87.0860746 70.1652574,96.4217659 Z" id="Path"></path>
        </g>
    </g>
</svg>