<?xml version="1.0" encoding="UTF-8"?>
<svg width="16px" height="16px" viewBox="0 0 16 16" version="1.1" xmlns="http://www.w3.org/2000/svg" xmlns:xlink="http://www.w3.org/1999/xlink">
    <!-- Generator: Sketch 51.2 (57519) - http://www.bohemiancoding.com/sketch -->
    <title>Shape</title>
    <desc>Created with Sketch.</desc>
    <defs></defs>
    <g id="Page-1" stroke="none" stroke-width="1" fill="none" fill-rule="evenodd">
        <g id="Desktop-HD" transform="translate(-741.000000, -1176.000000)" fill="#FFFFFF" fill-rule="nonzero">
            <g id="Group-3" transform="translate(414.000000, 987.000000)">
                <g id="Group-2" transform="translate(326.000000, 80.000000)">
                    <path d="M9,109 C4.58387097,109 1,112.583871 1,117 C1,121.416129 4.58387097,125 9,125 C13.416129,125 17,121.416129 17,117 C17,112.583871 13.416129,109 9,109 Z M11.9391727,121.190476 C11.8039442,121.190476 11.7202312,121.147428 11.5946618,121.071266 C9.58555147,119.826182 7.24802883,119.773199 4.93948375,120.259974 C4.81391435,120.293088 4.64970821,120.346071 4.5563361,120.346071 C4.24402246,120.346071 4.04761905,120.091093 4.04761905,119.82287 C4.04761905,119.481797 4.24402246,119.319538 4.48550208,119.266556 C7.12245943,118.667194 9.8173719,118.720176 12.1162578,120.134141 C12.3126612,120.263286 12.4285714,120.379185 12.4285714,120.680521 C12.4285714,120.981858 12.1999707,121.190476 11.9391727,121.190476 Z M13.3152709,118.904762 C13.1444992,118.904762 13.0295567,118.822005 12.91133,118.75364 C10.8587849,117.422331 7.79802956,116.886209 5.07553366,117.695789 C4.91789819,117.742565 4.83251232,117.789341 4.68472906,117.789341 C4.33333333,117.789341 4.04761905,117.476303 4.04761905,117.091303 C4.04761905,116.706302 4.2183908,116.450835 4.55665025,116.346489 C5.46962233,116.065835 6.40229885,115.857143 7.76847291,115.857143 C9.8998358,115.857143 11.9589491,116.436442 13.5812808,117.494294 C13.8472906,117.667004 13.952381,117.890088 13.952381,118.203126 C13.9490969,118.591724 13.6732348,118.904762 13.3152709,118.904762 Z M13.9635981,115.857143 C13.7953406,115.857143 13.6917974,115.81486 13.5461899,115.730294 C11.2423556,114.34797 7.12328102,114.016212 4.45704579,114.764293 C4.34055978,114.796819 4.19495227,114.848859 4.0396376,114.848859 C3.61252225,114.848859 3.28571429,114.513849 3.28571429,114.081262 C3.28571429,113.638919 3.55751497,113.388474 3.84872998,113.303908 C4.98770425,112.968898 6.26257887,112.809524 7.65070377,112.809524 C10.0127811,112.809524 12.4881087,113.303908 14.2968775,114.364232 C14.5492639,114.510596 14.7142857,114.712253 14.7142857,115.099304 C14.7142857,115.541648 14.3583563,115.857143 13.9635981,115.857143 Z" id="Shape"></path>
                </g>
            </g>
        </g>
    </g>
</svg>