<?xml version="1.0" encoding="UTF-8"?>
<svg width="235px" height="123px" viewBox="0 0 235 123" version="1.1" xmlns="http://www.w3.org/2000/svg" xmlns:xlink="http://www.w3.org/1999/xlink">
    <!-- Generator: Sketch 51.2 (57519) - http://www.bohemiancoding.com/sketch -->
    <title>Group 5</title>
    <desc>Created with Sketch.</desc>
    <defs></defs>
    <g id="Page-1" stroke="none" stroke-width="1" fill="none" fill-rule="evenodd">
        <g id="Desktop-HD" transform="translate(-46.000000, -987.000000)">
            <g id="Group-5" transform="translate(46.000000, 987.000000)">
                <polygon id="Fill-4" fill="#FFFFFF" points="80.701107 123 80.8505535 122.111913 81 121.075812 80.8505535 120.039711 80.701107 118.855596 80.402214 117.967509 80.103321 117.079422 79.6549815 116.191336 79.3560886 115.303249 78.9077491 114.415162 78.6088561 113.527076 78.3099631 112.490975 78.0110701 111.454874 77.7121771 110.566787 77.4132841 109.530686 76.8154982 108.790614 76.3671587 107.902527 75.9188192 107.01444 75.6199262 106.126354 75.1715867 105.386282 74.7232472 104.498195 74.4243542 103.610108 74.1254613 102.722022 73.6771218 101.833935 73.3782288 100.945848 72.9298893 100.057762 72.4815498 99.1696751 72.0332103 98.4296029 71.5848708 97.5415162 71.1365314 96.6534296 70.8376384 95.765343 70.3892989 94.8772563 69.9409594 93.9891697 69.4926199 93.2490975 69.0442804 92.3610108 68.595941 91.4729242 68.297048 90.4368231 67.8487085 89.6967509 67.400369 88.8086643 66.9520295 88.0685921 66.50369 87.1805054 66.204797 86.2924188 65.9059041 85.4043321 65.4575646 84.6642599 65.0092251 83.7761733 64.4114391 83.0361011 63.9630996 82.1480144 63.5147601 81.2599278 63.2158672 80.3718412 62.7675277 79.631769 62.3191882 78.7436823 61.7214022 78.0036101 61.2730627 77.1155235 60.6752768 76.3754513 60.2269373 75.6353791 59.6291513 74.8953069 59.1808118 74.0072202 58.7324723 73.267148 58.2841328 72.3790614 57.6863469 71.6389892 57.2380074 70.898917 56.6402214 70.1588448 56.1918819 69.2707581 55.5940959 68.5306859 55.1457565 67.7906137 54.697417 66.9025271 54.2490775 66.0144404 53.6512915 65.2743682 53.202952 64.534296 52.7546125 63.7942238 52.3062731 62.9061372 51.7084871 62.166065 51.1107011 61.4259928 50.5129151 60.6859206 50.0645756 59.9458484 49.4667897 59.2057762 49.0184502 58.3176895 48.4206642 57.5776173 47.9723247 56.8375451 47.5239852 56.0974729 47.0756458 55.2093863 46.4778598 54.4693141 45.8800738 53.7292419 45.4317343 52.9891697 44.9833948 52.101083 44.3856089 51.3610108 43.9372694 50.4729242 43.9372694 49.732852 44.0867159 48.9927798 43.6383764 49.1407942 43.1900369 49.1407942 43.3394834 48.1046931 43.6383764 46.9205776 43.9372694 46.032491 44.2361624 44.9963899 44.3856089 43.9602888 44.5350554 42.9241877 44.3856089 42.0361011 44.2361624 41 44.3856089 40.1119134 44.6845018 39.2238267 44.6845018 38.1877256 44.8339483 37.0036101 44.8339483 35.967509 44.8339483 34.7833935 44.8339483 33.7472924 44.8339483 32.7111913 44.8339483 31.8231047 44.9833948 30.9350181 44.8339483 30.4909747 44.8339483 30.0469314 44.3856089 29.898917 44.0867159 29.6028881 43.6383764 30.4909747 43.1900369 31.2310469 43.1900369 30.4909747 43.1900369 29.7509025 43.3394834 28.8628159 43.6383764 27.9747292 44.0867159 27.5306859 44.5350554 26.9386282 44.3856089 27.9747292 44.2361624 29.0108303 44.5350554 28.566787 44.9833948 28.1227437 44.9833948 26.9386282 44.9833948 25.7545126 44.5350554 24.866426 44.2361624 23.9783394 43.6383764 23.2382671 43.1900369 22.4981949 43.4889299 21.6101083 43.7878229 20.7220217 43.9372694 20.1299639 44.0867159 19.3898917 43.4889299 19.6859206 42.8911439 19.9819495 42.7416974 21.0180505 42.5922509 21.9061372 42.7416974 22.9422383 42.8911439 23.8303249 42.5922509 24.7184116 42.2933579 25.6064982 42.1439114 26.6425993 42.1439114 27.6787004 42.1439114 28.8628159 42.1439114 30.0469314 41.9944649 30.9350181 41.9944649 31.8231047 41.9944649 32.8592058 42.1439114 33.8953069 41.9944649 35.0794224 41.9944649 36.1155235 41.8450185 37.299639 41.8450185 38.4837545 41.9944649 39.2238267 42.2933579 39.8158845 41.8450185 40.7039711 41.5461255 41.5920578 41.396679 42.6281588 41.2472325 43.5162455 41.5461255 44.5523466 41.9944649 45.4404332 42.2933579 46.4765343 42.5922509 47.3646209 42.2933579 47.9566787 42.1439114 48.400722 41.5461255 47.6606498 41.097786 46.9205776 40.5 46.1805054 40.0516605 45.4404332 39.4538745 44.700361 38.8560886 43.9602888 38.2583026 43.368231 37.6605166 42.6281588 37.0627306 41.8880866 36.4649446 41.1480144 36.0166052 40.4079422 35.5682657 39.5198556 34.9704797 38.9277978 34.3726937 38.1877256 33.9243542 37.299639 33.4760148 36.4115523 32.8782288 35.6714801 32.4298893 34.9314079 31.8321033 34.1913357 31.3837638 33.3032491 30.7859779 32.5631769 30.3376384 31.8231047 29.5904059 31.3790614 28.8431734 30.7870036 28.2453875 30.0469314 27.6476015 29.3068592 27.0498155 28.7148014 26.4520295 27.9747292 26.601476 27.6787004 26.7509225 27.3826715 27.3487085 28.1227437 27.9464945 28.7148014 28.3948339 29.4548736 28.9926199 30.1949458 28.5442804 29.4548736 28.2453875 28.566787 27.797048 27.6787004 27.498155 26.7906137 26.900369 26.0505415 26.302583 25.3104693 25.704797 24.7184116 25.1070111 23.9783394 24.5092251 23.3862816 23.9114391 22.6462094 23.3136531 21.9061372 22.7158672 21.166065 22.1180812 20.5740072 21.5202952 19.833935 20.9225092 19.0938628 20.4741697 18.2057762 20.0258303 17.465704 19.5774908 16.5776173 18.9797048 15.8375451 18.5313653 15.0974729 17.9335793 14.3574007 17.3357934 13.6173285 16.7380074 12.8772563 16.2896679 12.1371841 15.6918819 11.3971119 15.0940959 10.6570397 14.6457565 9.91696751 14.197417 9.02888087 13.7490775 8.28880866 13.300738 7.40072202 12.702952 6.66064982 12.2546125 5.77256318 11.6568266 5.03249097 11.2084871 4.29241877 10.4612546 3.70036101 9.86346863 2.96028881 8.96678967 2.66425993 8.0701107 2.22021661 7.32287823 1.62815884 6.72509225 1.03610108 5.82841328 0.592057762 5.08118081 0 4.63284133 0.444043321 4.33394834 0.888086643 3.28782288 0.592057762 2.24169742 0.296028881 1.49446494 0.592057762 0.747232472 0.740072202 0.298892989 1.4801444 0 2.22021661 0.448339483 2.96028881 0.896678967 3.70036101 1.49446494 4.44043321 2.09225092 5.03249097 2.83948339 5.62454874 3.58671587 6.2166065 4.33394834 6.66064982 5.23062731 7.10469314 5.82841328 7.84476534 6.42619926 8.4368231 7.17343173 9.02888087 7.92066421 9.62093863 8.66789668 10.2129964 9.41512915 10.6570397 10.0129151 11.3971119 10.7601476 11.9891697 11.3579336 12.7292419 11.9557196 13.3212996 12.404059 14.0613718 13.001845 14.801444 13.599631 15.5415162 14.3468635 16.133574 15.0940959 16.5776173 15.9907749 17.0216606 16.5885609 17.7617329 17.1863469 18.5018051 17.6346863 19.3898917 18.0830258 20.1299639 18.5313653 20.8700361 19.1291513 21.6101083 19.7269373 22.3501805 20.3247232 23.0902527 20.7730627 23.8303249 21.3708487 24.5703971 21.9686347 25.3104693 22.7158672 25.9025271 23.1642066 26.7906137 23.6125461 27.5306859 24.2103321 28.2707581 24.8081181 28.8628159 25.4059041 29.6028881 26.1531365 30.1949458 26.7509225 30.9350181 27.3487085 31.5270758 27.797048 32.4151625 28.3948339 33.1552347 28.8431734 33.8953069 29.4409594 34.6353791 30.0387454 35.3754513 30.6365314 35.967509 30.7859779 36.7075812 30.9354244 37.4476534 31.3837638 38.1877256 31.9815498 38.9277978 32.7287823 39.5198556 33.4760148 40.1119134 34.0738007 40.8519856 34.6715867 41.4440433 35.2693727 42.1841155 35.8671587 42.7761733 36.3154982 43.6642599 36.9132841 44.4043321 37.3616236 45.1444043 37.9594096 45.8844765 37.3616236 45.5884477 36.9132841 45.1444043 37.3616236 45.8844765 37.8099631 46.4765343 38.4077491 47.2166065 39.0055351 47.8086643 39.4538745 48.6967509 39.902214 49.5848375 39.902214 50.3249097 40.0516605 51.0649819 40.5 51.9530686 40.9483395 52.8411552 40.9483395 54.0252708 40.9483395 55.0613718 40.6494465 56.0974729 40.3505535 56.9855596 40.3505535 58.1696751 40.3505535 59.3537906 40.201107 60.5379061 40.0516605 61.5740072 39.7527675 62.7581227 39.603321 63.7942238 39.4538745 64.9783394 39.4538745 66.1624549 39.1549815 67.198556 39.0055351 68.234657 38.7066421 69.2707581 38.4077491 70.3068592 38.1088561 71.3429603 37.9594096 72.3790614 37.8099631 73.4151625 37.6605166 74.4512635 37.5110701 75.6353791 37.3616236 76.6714801 37.2121771 77.8555957 37.2121771 79.0397112 36.9132841 80.2238267 36.7638376 81.2599278 36.9132841 82.1480144 37.0627306 82.8880866 36.9132841 83.9241877 36.7638376 84.9602888 36.6143911 85.9963899 36.6143911 87.032491 36.1660517 87.9205776 35.7177122 88.6606498 34.9704797 89.400722 34.3726937 89.9927798 33.3265683 90.2888087 32.4298893 90.5848375 31.5332103 91.1768953 30.7859779 91.6209386 29.8892989 92.0649819 29.1420664 92.5090253 28.3948339 93.101083 27.6476015 93.5451264 26.7509225 94.1371841 26.00369 94.5812274 25.2564576 95.1732852 24.5092251 95.6173285 23.6125461 96.0613718 22.8653137 96.3574007 21.9686347 96.801444 21.0719557 97.0974729 20.1752768 97.6895307 19.4280443 98.133574 18.8302583 98.8736462 18.2324723 99.465704 17.6346863 100.205776 17.0369004 100.797834 17.1863469 100.353791 17.3357934 99.9097473 17.6346863 99.465704 17.9335793 98.8736462 17.0369004 99.465704 16.2896679 99.9097473 15.5424354 100.501805 14.9446494 101.093863 15.0940959 101.389892 15.3929889 101.685921 16.1402214 101.685921 16.8874539 101.685921 17.0369004 101.685921 17.1863469 101.537906 18.0830258 101.833935 19.1291513 101.981949 20.0258303 101.685921 21.0719557 101.389892 21.8191882 100.945848 22.5664207 100.353791 23.3136531 99.7617329 24.0608856 99.1696751 25.1070111 99.0216606 26.1531365 98.7256318 26.900369 98.2815884 27.797048 97.6895307 28.3948339 97.0974729 29.1420664 96.5054152 30.0387454 96.2093863 30.9354244 95.765343 31.6826568 95.1732852 32.4298893 94.5812274 33.1771218 94.1371841 34.0738007 93.6931408 34.8210332 93.3971119 35.7177122 92.9530686 35.4188192 93.8411552 35.2693727 94.7292419 35.2693727 95.6173285 35.4188192 96.5054152 35.2693727 97.5415162 35.1199262 98.5776173 34.9704797 99.6137184 34.9704797 100.649819 34.6715867 101.685921 34.3726937 102.722022 34.2232472 103.758123 34.0738007 104.646209 34.3726937 105.386282 34.8210332 106.126354 34.3726937 106.570397 33.9243542 107.01444 33.7749077 108.050542 33.7749077 109.086643 33.6254613 109.530686 33.4760148 109.974729 33.7749077 111.01083 34.0738007 111.898917 34.5221402 112.787004 34.9704797 113.527076 35.8671587 113.67509 36.9132841 113.67509 36.7638376 113.971119 36.7638376 114.267148 37.3616236 113.67509 38.1088561 112.935018 37.8099631 111.898917 37.6605166 110.862816 37.5110701 109.826715 37.3616236 108.642599 37.3616236 107.458484 37.3616236 106.274368 37.3616236 105.090253 37.3616236 103.758123 37.3616236 102.574007 37.3616236 101.389892 37.6605166 100.501805 37.9594096 99.465704 37.9594096 98.4296029 38.1088561 97.3935018 38.2583026 96.3574007 38.5571956 95.1732852 38.5571956 94.1371841 38.7066421 93.101083 38.8560886 92.2129964 39.1549815 91.1768953 39.7527675 90.5848375 40.3505535 89.8447653 40.9483395 89.2527076 41.695572 88.6606498 42.4428044 88.2166065 43.3394834 87.6245487 43.7878229 87.3285199 44.3856089 87.032491 45.1328413 86.7364621 46.0295203 86.2924188 46.4778598 85.5523466 46.9261993 84.6642599 47.5239852 84.0722022 48.2712177 83.4801444 48.7195572 83.6281588 49.3173432 83.6281588 50.0645756 83.1841155 50.8118081 82.5920578 51.5590406 82.1480144 52.4557196 81.5559567 53.0535055 80.9638989 53.800738 80.3718412 54.5479705 79.9277978 55.295203 79.3357401 56.0424354 78.7436823 56.7896679 78.1516245 57.3874539 77.5595668 58.1346863 76.967509 58.7324723 77.7075812 59.3302583 78.4476534 59.7785978 79.3357401 60.2269373 80.0758123 60.6752768 80.8158845 61.2730627 81.5559567 61.7214022 82.4440433 62.1697417 83.33213 62.4686347 84.2202166 62.9169742 85.1083032 63.5147601 85.8483755 64.2619926 86.4404332 64.7103321 87.1805054 65.3081181 87.9205776 65.7564576 88.8086643 66.204797 89.5487365 66.6531365 90.4368231 67.101476 91.3249097 66.9520295 91.7689531 66.802583 92.0649819 66.3542435 91.9169675 66.0553506 91.6209386 66.50369 92.5090253 66.9520295 93.2490975 67.400369 94.1371841 67.8487085 94.8772563 68.1476015 95.765343 68.4464945 96.6534296 68.7453875 97.5415162 69.1937269 98.4296029 69.4926199 99.465704 69.7915129 100.501805 70.0904059 101.537906 70.3892989 102.425993 70.6881919 103.462094 70.9870849 104.350181 71.2859779 105.238267 71.5848708 106.126354 71.8837638 107.162455 72.1826568 108.050542 72.6309963 108.938628 73.0793358 109.826715 73.5276753 110.714801 73.9760148 111.454874 74.1254613 112.34296 74.4243542 113.231047 74.8726937 114.119134 75.3210332 115.00722 75.7693727 115.747292 76.3671587 116.487365 75.9188192 116.487365 75.4704797 116.487365 74.7232472 115.895307 74.1254613 115.303249 74.1254613 115.599278 74.2749077 115.895307 74.8726937 116.635379 75.4704797 117.375451 76.2177122 117.967509 76.9649446 118.411552 77.7121771 119.00361 78.4594096 119.595668 78.9077491 120.33574 79.5055351 121.075812 79.3560886 121.371841 79.3560886 121.66787 78.6088561 121.075812 77.8616236 120.483755 77.1143911 119.891697 76.5166052 119.299639 75.9188192 119.299639 75.4704797 119.151625 75.9188192 120.039711 76.3671587 120.779783 76.3671587 120.631769 76.3671587 120.33574 77.1143911 120.779783 78.0110701 121.075812 78.6088561 121.66787 79.3560886 122.259928 79.9538745 122.703971"></polygon>
                <polygon id="Fill-6" fill="#FFFFFF" points="33 119 33.3636364 118.166667 33.9090909 117.333333 34.4545455 116.5 35 115.5 34.0909091 114.833333 33.3636364 114 33.1818182 114.333333 33.1818182 114.666667 33.1818182 115.833333 33.3636364 116.833333 33.1818182 118"></polygon>
                <polygon id="Stroke-7" stroke="#FFFFFF" stroke-width="2" stroke-linecap="round" stroke-linejoin="round" points="33 119 33.3636364 118.166667 33.9090909 117.333333 34.4545455 116.5 35 115.5 34.0909091 114.833333 33.3636364 114 33.1818182 114.333333 33.1818182 114.666667 33.1818182 115.833333 33.3636364 116.833333 33.1818182 118"></polygon>
                <polygon id="Fill-8" fill="#FFFFFF" points="144.232044 117 145.127072 116.853352 146.022099 116.560056 146.917127 116.26676 147.812155 115.826816 148.40884 115.240223 149.154696 114.506983 149.303867 113.480447 149.60221 112.453911 149.751381 111.427374 150.049724 110.25419 150.198895 109.227654 150.497238 108.201117 150.646409 107.174581 150.79558 106.001397 150.79558 104.828212 150.944751 103.50838 151.243094 102.628492 151.541436 101.601955 151.690608 100.575419 151.839779 99.5488827 151.98895 98.6689944 152.138122 97.6424581 152.287293 96.7625698 152.585635 95.8826816 152.883978 94.8561453 153.18232 93.8296089 153.331492 92.9497207 153.480663 91.9231844 153.480663 90.896648 153.480663 89.8701117 153.779006 88.9902235 154.226519 88.1103352 154.524862 87.2304469 154.972376 86.3505587 155.270718 85.3240223 155.569061 84.297486 155.867403 83.4175978 156.165746 82.3910615 156.464088 81.5111732 156.911602 80.4846369 157.359116 79.7513966 157.80663 78.8715084 158.104972 77.9916201 158.403315 76.9650838 158.850829 76.2318436 159.447514 75.3519553 160.19337 74.9120112 160.939227 74.325419 161.834254 73.8854749 162.729282 73.4455307 163.475138 73.0055866 164.370166 72.5656425 165.265193 72.2723464 166.309392 71.9790503 167.20442 71.5391061 168.099448 71.099162 168.994475 70.8058659 169.889503 70.3659218 170.78453 69.9259777 171.679558 69.4860335 172.425414 69.0460894 173.320442 68.6061453 174.066298 68.1662011 174.961326 67.726257 175.856354 67.2863128 176.751381 66.8463687 177.497238 66.4064246 178.392265 65.9664804 179.138122 65.3798883 179.883978 64.7932961 180.480663 64.2067039 181.226519 63.6201117 181.972376 63.1801676 182.867403 62.7402235 183.61326 62.1536313 184.359116 61.5670391 184.657459 61.127095 185.104972 60.6871508 184.209945 61.127095 183.314917 61.5670391 182.569061 62.1536313 181.823204 62.5935754 181.077348 63.1801676 180.331492 63.6201117 179.436464 64.2067039 178.690608 64.646648 177.944751 65.2332402 177.198895 65.6731844 176.303867 66.1131285 175.40884 66.5530726 174.513812 66.9930168 173.618785 67.2863128 172.723757 67.726257 171.977901 68.1662011 170.933702 68.4594972 170.038674 68.6061453 168.994475 68.8994413 168.099448 69.1927374 167.20442 69.7793296 166.458564 70.2192737 165.563536 70.6592179 164.668508 70.952514 163.773481 71.3924581 163.027624 71.8324022 162.132597 72.1256983 161.237569 72.4189944 160.342541 72.8589385 159.596685 73.2988827 159.895028 72.7122905 160.342541 71.9790503 160.640884 71.099162 160.939227 70.0726257 161.237569 69.1927374 161.685083 68.3128492 161.983425 67.4329609 162.430939 66.4064246 162.729282 65.5265363 163.176796 64.646648 163.475138 63.7667598 163.922652 62.7402235 164.370166 62.0069832 164.81768 61.127095 165.265193 60.3938547 165.861878 59.6606145 166.309392 58.9273743 166.906077 58.047486 167.353591 57.3142458 167.801105 56.4343575 168.248619 55.5544693 168.696133 54.674581 168.994475 53.7946927 169.441989 52.9148045 169.740331 52.0349162 170.038674 51.0083799 170.486188 50.2751397 171.082873 49.3952514 171.381215 48.5153631 171.828729 47.6354749 172.276243 46.9022346 172.872928 46.0223464 173.171271 45.1424581 173.469613 44.1159218 173.917127 43.3826816 174.364641 42.5027933 174.812155 41.622905 175.259669 40.7430168 175.558011 39.8631285 176.005525 38.9832402 176.303867 37.9567039 176.60221 36.9301676 176.900552 36.0502793 177.198895 35.023743 177.646409 34.2905028 178.243094 33.5572626 178.839779 32.8240223 179.436464 32.0907821 179.436464 31.3575419 179.585635 30.6243017 178.98895 30.4776536 178.541436 30.1843575 179.138122 29.5977654 179.734807 28.8645251 180.331492 28.277933 181.077348 27.6913408 180.928177 26.9581006 180.779006 26.2248603 180.779006 25.7849162 180.779006 25.198324 180.928177 24.7583799 181.226519 24.1717877 181.375691 23.4385475 181.674033 22.7053073 181.972376 21.972067 182.41989 21.2388268 182.867403 20.3589385 183.314917 19.4790503 183.61326 18.599162 184.060773 17.7192737 184.209945 16.6927374 184.508287 15.5195531 184.955801 14.7863128 185.403315 13.9064246 185.701657 13.0265363 186 12 185.701657 12 185.403315 12 184.955801 12.8798883 184.657459 13.7597765 184.209945 14.6396648 183.762431 15.5195531 183.314917 16.3994413 183.016575 17.2793296 182.569061 18.1592179 182.270718 19.0391061 181.972376 20.0656425 181.674033 21.0921788 181.226519 21.972067 180.928177 22.8519553 180.480663 23.7318436 180.033149 24.6117318 179.585635 25.4916201 179.138122 26.2248603 178.690608 27.1047486 178.243094 27.8379888 177.79558 28.8645251 177.497238 29.7444134 177.198895 30.7709497 176.900552 31.650838 176.453039 32.5307263 176.005525 33.4106145 175.558011 34.2905028 175.110497 35.023743 174.812155 36.0502793 174.513812 36.9301676 174.21547 37.9567039 173.917127 38.9832402 173.469613 39.7164804 173.171271 40.4497207 172.723757 41.476257 172.425414 42.3561453 171.977901 43.2360335 171.679558 44.1159218 171.381215 45.1424581 171.082873 46.0223464 170.635359 46.9022346 170.337017 47.6354749 169.889503 48.5153631 169.59116 49.3952514 168.994475 50.2751397 168.546961 51.0083799 168.099448 51.8882682 167.651934 52.6215084 167.20442 53.5013966 166.756906 54.2346369 166.160221 55.1145251 165.712707 55.8477654 165.116022 56.5810056 164.668508 57.3142458 164.370166 58.1941341 164.071823 59.0740223 163.773481 60.1005587 163.475138 60.9804469 162.878453 61.7136872 162.430939 62.4469274 161.834254 63.3268156 161.38674 64.0600559 161.088398 64.7932961 160.939227 65.5265363 160.640884 66.4064246 160.342541 67.2863128 159.895028 68.0195531 159.596685 68.7527933 159.447514 69.7793296 159.447514 70.8058659 158.850829 71.6857542 158.403315 72.4189944 157.657459 73.0055866 157.060773 73.5921788 156.165746 74.1787709 155.41989 74.6187151 154.375691 74.9120112 153.480663 75.2053073 152.585635 75.6452514 151.839779 76.0851955 150.944751 76.5251397 150.049724 76.9650838 149.005525 77.1117318 148.110497 77.2583799 147.066298 77.698324 146.171271 77.9916201 145.127072 78.2849162 144.232044 78.5782123 143.337017 79.0181564 142.59116 79.4581006 141.39779 79.7513966 140.353591 79.8980447 139.458564 80.3379888 138.563536 80.6312849 137.519337 80.924581 136.475138 81.2178771 135.430939 81.5111732 134.535912 81.8044693 133.790055 82.3910615 133.044199 82.8310056 132.447514 83.2709497 132 83.5642458 133.044199 83.4175978 134.088398 83.1243017 134.983425 82.8310056 136.027624 82.3910615 136.922652 82.0977654 137.81768 81.6578212 138.712707 81.3645251 139.756906 81.0712291 140.801105 80.924581 141.845304 80.777933 142.59116 80.4846369 143.486188 80.1913408 144.530387 79.8980447 145.574586 79.6047486 146.469613 79.3114525 147.513812 79.0181564 148.558011 78.8715084 149.60221 78.5782123 150.497238 78.4315642 151.541436 78.1382682 152.287293 77.698324 153.18232 77.2583799 154.077348 77.1117318 154.972376 76.9650838 155.718232 76.5251397 156.61326 76.0851955 156.762431 76.5251397 156.911602 76.8184358 156.464088 77.8449721 156.165746 78.7248603 156.016575 79.4581006 156.016575 80.1913408 155.41989 80.924581 154.823204 81.6578212 154.375691 82.5377095 154.077348 83.4175978 154.077348 84.150838 154.226519 84.8840782 153.928177 85.9106145 153.629834 86.9371508 153.331492 87.8170391 153.18232 88.6969274 152.883978 89.7234637 152.734807 90.603352 152.287293 91.4832402 151.98895 92.3631285 151.541436 93.2430168 151.243094 94.122905 150.944751 95.0027933 150.646409 95.8826816 150.348066 96.9092179 150.049724 97.7891061 149.900552 98.9622905 149.751381 100.135475 149.453039 101.162011 149.154696 102.041899 148.558011 102.77514 148.110497 103.50838 148.259669 103.655028 148.40884 103.801676 148.558011 104.388268 148.707182 104.828212 148.40884 106.001397 148.259669 107.027933 147.812155 107.907821 147.364641 108.641061 147.21547 109.52095 147.066298 110.25419 146.469613 110.107542 146.022099 109.814246 145.425414 109.814246 144.977901 109.814246 144.381215 110.547486 143.78453 111.280726 143.635359 112.160615 143.635359 113.040503 143.933702 113.920391 144.381215 114.800279 144.232044 115.680168 144.082873 116.560056 144.082873 116.853352"></polygon>
                <polygon id="Fill-10" fill="#000000" points="145 115 145.25 114.555556 145.5 114 145.25 114.555556"></polygon>
                <polygon id="Stroke-11" stroke="#000000" stroke-width="2" stroke-linecap="round" stroke-linejoin="round" points="145 115 145.25 114.555556 145.5 114 145.25 114.555556"></polygon>
                <path d="M73,106 L72.8,105.555556 C72.7,105.277778 72.2,104.777778 71.8,104.555556 L71,104 L71.4,104.555556 C71.6,104.833333 72.1,105.333333 72.4,105.555556 L73,106 Z" id="Fill-12" fill="#000000"></path>
                <path d="M73,106 L72.8,105.555556 C72.7,105.277778 72.2,104.777778 71.8,104.555556 L71,104 L71.4,104.555556 C71.6,104.833333 72.1,105.333333 72.4,105.555556 L73,106 Z" id="Stroke-13" stroke="#000000" stroke-width="2" stroke-linecap="round" stroke-linejoin="round"></path>
                <polygon id="Fill-14" fill="#FFFFFF" points="39 104 39.3333333 103.272727 39.8333333 102.545455 39.6666667 101.527273 39.6666667 100.509091 39.6666667 99.3454545 39.8333333 98.0363636 39.8333333 97.0181818 40 96 39.6666667 96.8727273 39.3333333 97.7454545 39.1666667 98.7636364 39 99.6363636 39.1666667 100.8 39.3333333 101.818182 39.1666667 102.836364 39 103.854545"></polygon>
                <polygon id="Stroke-15" stroke="#FFFFFF" stroke-width="2" stroke-linecap="round" stroke-linejoin="round" points="39 104 39.3333333 103.272727 39.8333333 102.545455 39.6666667 101.527273 39.6666667 100.509091 39.6666667 99.3454545 39.8333333 98.0363636 39.8333333 97.0181818 40 96 39.6666667 96.8727273 39.3333333 97.7454545 39.1666667 98.7636364 39 99.6363636 39.1666667 100.8 39.3333333 101.818182 39.1666667 102.836364 39 103.854545"></polygon>
                <polygon id="Fill-16" fill="#FFFFFF" points="18.5 102.5 18.25 102.333333 18 102 18.25 102.333333"></polygon>
                <polygon id="Stroke-17" stroke="#FFFFFF" stroke-width="2" stroke-linecap="round" stroke-linejoin="round" points="18.5 102.5 18.25 102.333333 18 102 18.25 102.333333"></polygon>
                <path d="M72,102 L71.8,101.555556 C71.7,101.277778 71.2,100.777778 70.8,100.555556 L70,100 L70,100.333333 C70,100.5 70.3,100.944444 70.6,101.222222 C71,101.5 71.5,101.833333 71.6,101.888889 L72,102 Z" id="Fill-18" fill="#000000"></path>
                <path d="M72,102 L71.8,101.555556 C71.7,101.277778 71.2,100.777778 70.8,100.555556 L70,100 L70,100.333333 C70,100.5 70.3,100.944444 70.6,101.222222 C71,101.5 71.5,101.833333 71.6,101.888889 L72,102 Z" id="Stroke-19" stroke="#000000" stroke-width="2" stroke-linecap="round" stroke-linejoin="round"></path>
                <polygon id="Fill-20" fill="#FFFFFF" points="138.221239 101 139.070796 100.855422 140.061947 100.710843 140.911504 100.421687 141.902655 100.13253 142.610619 99.6987952 143.460177 99.1204819 143.884956 98.3975904 144.451327 97.6746988 145.017699 97.0963855 145.725664 96.373494 146.292035 95.7951807 146.858407 95.0722892 146.858407 94.4939759 147 93.9156627 146.292035 94.6385542 145.725664 95.2168675 145.017699 95.7951807 144.309735 96.2289157 143.318584 96.6626506 142.469027 96.9518072 141.619469 97.3855422 140.769912 97.6746988 139.778761 97.9638554 138.787611 98.1084337 137.79646 97.8192771 136.946903 97.3855422 136.238938 96.9518072 135.530973 96.373494 134.823009 95.7951807 134.256637 95.0722892 134.115044 94.060241 134.115044 93.0481928 134.681416 92.4698795 135.247788 91.746988 135.955752 91.313253 136.80531 90.7349398 137.654867 90.4457831 138.646018 90.1566265 138.079646 89.5783133 137.513274 89 136.522124 89.1445783 135.530973 89.1445783 134.681416 89.5783133 133.831858 89.8674699 132.982301 90.4457831 132.274336 90.8795181 131.849558 91.746988 131.566372 92.6144578 131.283186 93.626506 131 94.6385542 131 95.6506024 131.141593 96.6626506 131.424779 97.5301205 131.849558 98.3975904 132.557522 98.9759036 133.265487 99.5542169 134.115044 99.8433735 135.106195 100.13253 136.097345 100.421687 137.230088 100.566265 137.654867 100.855422"></polygon>
                <path d="M26,96 L26.5882353,95.6923077 C26.9411765,95.5384615 27.4705882,95.0769231 27.6470588,94.7692308 L28,94 L27.4117647,94.6153846 C27.1176471,94.9230769 26.5882353,95.4615385 26.3529412,95.6923077 L26,96 Z" id="Fill-22" fill="#000000"></path>
                <path d="M26,96 L26.5882353,95.6923077 C26.9411765,95.5384615 27.4705882,95.0769231 27.6470588,94.7692308 L28,94 L27.4117647,94.6153846 C27.1176471,94.9230769 26.5882353,95.4615385 26.3529412,95.6923077 L26,96 Z" id="Stroke-23" stroke="#000000" stroke-width="2" stroke-linecap="round" stroke-linejoin="round"></path>
                <polygon id="Fill-24" fill="#FFFFFF" points="187.5 96 187 95.5 187 95 187 95.5"></polygon>
                <polygon id="Stroke-25" stroke="#FFFFFF" stroke-width="2" stroke-linecap="round" stroke-linejoin="round" points="187.5 96 187 95.5 187 95 187 95.5"></polygon>
                <polygon id="Fill-26" fill="#FFFFFF" points="187.942073 95 187.792683 94.7025316 187.792683 94.4050633 188.240854 94.4050633 188.838415 94.4050633 189.286585 94.1075949 189.734756 93.8101266 189.884146 93.2151899 190.033537 92.471519 189.884146 91.7278481 189.884146 90.835443 190.182927 89.943038 190.631098 89.0506329 190.929878 88.306962 191.378049 87.5632911 191.378049 87.2658228 191.527439 86.8196203 191.97561 86.0759494 192.42378 85.1835443 192.722561 84.4398734 193.170732 83.5474684 193.469512 82.6550633 193.917683 81.7626582 194.365854 81.0189873 194.963415 80.2753165 195.560976 79.5316456 196.158537 78.7879747 196.457317 77.8955696 196.905488 77.0031646 196.756098 76.8544304 196.606707 76.7056962 196.158537 77.5981013 195.710366 78.3417722 195.560976 77.7468354 195.560976 77.1518987 196.009146 76.4082278 196.606707 75.5158228 197.353659 75.0696203 198.25 74.6234177 199.295732 74.3259494 200.341463 74.028481 201.088415 73.5822785 201.835366 72.9873418 202.582317 72.5411392 203.478659 72.0949367 203.030488 72.0949367 202.731707 71.9462025 201.685976 72.0949367 200.789634 72.2436709 199.893293 72.6898734 198.996951 73.1360759 198.39939 72.3924051 197.95122 71.6487342 198.25 70.7563291 198.698171 69.8639241 198.996951 69.1202532 199.295732 68.3765823 199.594512 67.4841772 199.893293 66.443038 200.341463 65.6993671 200.939024 64.806962 201.387195 64.0632911 201.835366 63.1708861 202.134146 62.278481 202.582317 61.3860759 203.030488 60.4936709 203.478659 59.6012658 203.777439 58.8575949 204.07622 57.9651899 204.52439 57.0727848 204.972561 56.1803797 205.420732 55.4367089 206.018293 54.693038 206.317073 54.2468354 206.615854 53.6518987 206.018293 53.9493671 205.570122 54.0981013 206.018293 53.3544304 206.466463 52.4620253 206.615854 51.7183544 206.914634 50.8259494 207.362805 50.0822785 207.810976 49.1898734 208.259146 48.4462025 208.707317 47.5537975 209.006098 46.6613924 209.454268 45.6202532 209.902439 44.8765823 210.35061 43.9841772 210.79878 43.0917722 211.246951 42.1993671 211.545732 41.306962 211.844512 40.2658228 212.292683 39.5221519 212.890244 38.778481 213.338415 37.8860759 213.786585 36.9936709 214.234756 36.25 214.832317 35.5063291 215.280488 34.7626582 215.878049 33.8702532 216.32622 33.1265823 216.92378 32.3829114 217.371951 31.6392405 217.820122 30.7468354 218.268293 30.0031646 218.865854 29.1107595 219.314024 28.3670886 219.762195 27.4746835 220.210366 26.7310127 220.807927 25.8386076 221.106707 24.9462025 221.554878 24.0537975 222.152439 23.4588608 222.75 22.7151899 223.198171 21.971519 223.795732 21.0791139 224.243902 20.335443 224.692073 19.443038 224.990854 18.5506329 225.289634 17.6582278 225.737805 16.914557 226.185976 16.0221519 226.634146 15.278481 227.082317 14.3860759 227.530488 13.6424051 228.128049 12.75 227.829268 12.1550633 227.530488 11.4113924 228.128049 10.6677215 228.72561 9.92405063 229.323171 9.32911392 230.070122 8.73417722 230.966463 8.43670886 231.862805 7.99050633 232.310976 7.24683544 232.908537 6.35443038 233.356707 5.61075949 233.804878 4.71835443 234.103659 3.82594937 234.551829 2.78481013 234.70122 1.89240506 235 1 234.402439 1.44620253 233.804878 1.74367089 233.207317 2.48734177 232.609756 3.23101266 231.862805 3.82594937 231.115854 4.2721519 230.219512 4.86708861 229.472561 5.31329114 229.17378 4.86708861 229.02439 4.42088608 228.277439 5.01582278 227.679878 5.61075949 226.932927 6.2056962 226.185976 6.80063291 225.737805 7.69303797 225.289634 8.43670886 224.841463 9.4778481 224.542683 10.3702532 224.094512 11.2626582 223.795732 12.1550633 223.496951 13.1962025 223.198171 14.0886076 222.89939 15.1297468 222.60061 16.1708861 222.152439 17.0632911 221.853659 17.9556962 221.405488 18.8481013 220.957317 19.7405063 220.509146 20.6329114 220.060976 21.3765823 219.612805 22.2689873 219.164634 23.0126582 218.567073 23.9050633 218.118902 24.6487342 217.670732 25.5411392 217.222561 26.2848101 216.625 27.1772152 216.176829 27.9208861 215.579268 28.664557 215.131098 29.4082278 214.832317 30.3006329 214.533537 31.0443038 214.085366 31.9367089 213.637195 32.8291139 213.189024 33.721519 212.740854 34.4651899 212.143293 35.3575949 211.695122 36.1012658 211.396341 37.1424051 211.097561 38.0348101 210.64939 38.9272152 210.35061 39.8196203 209.902439 40.7120253 209.454268 41.6044304 209.006098 42.4968354 208.707317 43.3892405 208.408537 44.4303797 208.109756 45.471519 207.661585 46.3639241 207.362805 47.2563291 206.914634 48.1487342 206.615854 49.0411392 206.167683 50.0822785 205.868902 50.9746835 205.420732 51.8670886 205.121951 52.7594937 204.67378 53.8006329 204.375 54.693038 203.926829 55.585443 203.478659 56.3291139 203.030488 57.221519 202.731707 58.1139241 202.283537 59.0063291 201.835366 59.8987342 201.387195 60.7911392 201.088415 61.6835443 200.640244 62.7246835 200.341463 63.6170886 199.743902 64.3607595 199.295732 65.1044304 198.847561 65.9968354 198.54878 66.8892405 198.10061 67.9303797 197.801829 68.8227848 197.353659 69.7151899 196.905488 70.4588608 196.307927 71.3512658 195.859756 72.0949367 195.112805 72.6898734 194.515244 73.2848101 193.469512 72.9873418 192.573171 72.6898734 191.82622 72.0949367 191.228659 71.3512658 191.079268 70.4588608 191.079268 69.5664557 191.228659 68.5253165 191.527439 67.335443 191.82622 66.443038 192.27439 65.5506329 192.722561 64.806962 193.320122 64.0632911 194.067073 63.4683544 194.814024 62.8734177 195.560976 62.4272152 196.457317 61.9810127 197.204268 62.4272152 197.95122 62.8734177 198.25 62.5759494 198.54878 62.1297468 197.801829 61.5348101 197.204268 60.9398734 196.158537 61.2373418 195.262195 61.3860759 194.365854 61.8322785 193.469512 62.1297468 192.42378 62.5759494 191.527439 62.8734177 190.780488 63.4683544 190.182927 64.0632911 189.734756 64.9556962 189.435976 65.8481013 188.987805 66.8892405 188.689024 67.7816456 188.390244 68.8227848 188.091463 69.7151899 188.390244 70.7563291 188.689024 71.7974684 189.137195 72.6898734 189.585366 73.4335443 190.332317 74.028481 191.079268 74.4746835 191.97561 74.6234177 193.021341 74.6234177 193.618902 75.2183544 194.365854 75.8132911 193.917683 76.8544304 193.618902 77.7468354 193.170732 78.6392405 192.871951 79.5316456 192.27439 80.2753165 191.82622 81.0189873 191.378049 81.9113924 190.929878 82.8037975 190.481707 83.6962025 190.033537 84.4398734 189.435976 85.3322785 188.987805 86.0759494 188.539634 86.9683544 188.091463 87.7120253 187.643293 88.6044304 187.344512 89.4968354 186.896341 90.5379747 186.597561 91.4303797 186.29878 92.471519 186 93.3639241 186.29878 93.9588608 186.746951 94.4050633 187.344512 94.7025316"></polygon>
                <polygon id="Fill-28" fill="#FFFFFF" points="76.7304348 93 77.826087 93 79.0782609 93 80.173913 92.8542056 81.2695652 92.5626168 82.3652174 92.271028 83.4608696 91.9794393 84.4 91.6878505 85.4956522 91.3962617 86.1217391 90.6672897 86.7478261 89.9383178 87.2173913 89.2093458 87.6869565 88.3345794 87.8434783 87.4598131 88 86.4392523 87.373913 85.7102804 86.9043478 84.835514 86.1217391 84.2523364 85.4956522 83.6691589 84.5565217 83.2317757 83.773913 82.6485981 82.6782609 82.5028037 81.5826087 82.211215 80.6434783 81.7738318 79.8608696 81.3364486 79.0782609 81.7738318 78.2956522 82.211215 79.0782609 82.7943925 79.8608696 83.2317757 80.6434783 83.8149533 81.5826087 84.2523364 82.2086957 84.835514 82.9913043 85.4186916 83.3043478 86.2934579 83.6173913 87.0224299 83.1478261 88.0429907 82.8347826 88.917757 82.0521739 89.5009346 81.426087 90.0841121 80.3304348 90.3757009 79.2347826 90.6672897 78.1391304 90.6672897 77.0434783 90.5214953 76.1043478 90.6672897 75.1652174 90.6672897 74.8521739 90.0841121 74.6956522 89.3551402 75.0086957 88.4803738 75.4782609 87.6056075 75.4782609 86.5850467 75.4782609 85.564486 75.4782609 84.3981308 75.4782609 83.0859813 75.6347826 82.0654206 75.9478261 81.0448598 76.4173913 80.3158879 77.0434783 79.4411215 76.7304348 78.4205607 76.573913 77.4 76.7304348 76.3794393 76.8869565 75.3588785 77.0434783 74.4841121 77.2 73.4635514 77.3565217 72.588785 77.6695652 71.7140187 77.826087 70.6934579 78.1391304 69.5271028 78.2956522 68.6523364 78.4521739 67.6317757 78.2956522 66.9028037 78.1391304 66.1738318 78.4521739 65.2990654 78.9217391 64.4242991 79.0782609 63.4037383 79.2347826 62.2373832 79.0782609 61.071028 79.0782609 59.7588785 79.3913043 58.8841121 79.7043478 57.8635514 80.0173913 56.8429907 80.3304348 55.8224299 80.3304348 54.6560748 80.3304348 53.3439252 80.4869565 52.3233645 80.8 51.3028037 80.6434783 50.1364486 80.6434783 48.8242991 80.9565217 47.9495327 81.2695652 46.928972 81.2695652 45.7626168 81.426087 44.4504673 81.5826087 43.5757009 81.7391304 42.5551402 81.7391304 41.5345794 81.8956522 40.5140187 82.2086957 39.7850467 82.5217391 39.0560748 82.6782609 38.1813084 82.9913043 37.3065421 83.1478261 37.3065421 83.4608696 37.1607477 83.6173913 37.3065421 83.773913 37.3065421 83.4608696 36.2859813 83.3043478 35.2654206 83.4608696 34.2448598 83.773913 33.0785047 83.773913 32.0579439 83.773913 30.8915888 83.773913 29.7252336 83.773913 28.5588785 83.9304348 27.5383178 84.2434783 26.517757 84.0869565 25.6429907 83.9304348 24.6224299 83.773913 23.4560748 83.6173913 22.2897196 83.3043478 21.2691589 83.1478261 20.2485981 83.1478261 19.2280374 83.3043478 18.0616822 83.1478261 17.0411215 82.9913043 15.8747664 82.5217391 15.4373832 82.2086957 15 82.3652174 16.1663551 82.6782609 17.1869159 82.5217391 18.353271 82.5217391 19.5196262 82.6782609 20.5401869 82.8347826 21.5607477 82.6782609 22.7271028 82.6782609 23.8934579 82.6782609 25.0598131 82.6782609 26.0803738 82.5217391 27.246729 82.3652174 28.4130841 82.0521739 29.4336449 81.8956522 30.4542056 81.7391304 31.6205607 81.5826087 32.7869159 81.426087 33.953271 81.2695652 34.9738318 81.1130435 36.1401869 80.9565217 37.1607477 80.8 38.3271028 80.6434783 39.4934579 80.4869565 40.6598131 80.3304348 41.6803738 80.0173913 42.846729 79.8608696 43.8672897 79.7043478 45.0336449 79.5478261 46.0542056 79.2347826 47.0747664 78.9217391 47.9495327 78.7652174 48.9700935 78.6086957 49.9906542 78.4521739 51.1570093 78.2956522 52.1775701 78.1391304 53.3439252 77.9826087 54.5102804 77.6695652 55.5308411 77.5130435 56.5514019 77.3565217 57.717757 77.2 58.7383178 76.8869565 59.9046729 76.7304348 60.9252336 76.4173913 61.8 76.2608696 62.6747664 75.9478261 63.8411215 75.7913043 64.8616822 75.9478261 65.2990654 76.1043478 65.5906542 76.2608696 65.4448598 76.573913 65.2990654 76.2608696 66.3196262 75.9478261 67.3401869 75.4782609 68.2149533 75.1652174 69.0897196 74.8521739 70.1102804 74.6956522 70.9850467 74.3826087 72.0056075 74.226087 73.0261682 73.9130435 74.046729 73.6 74.9214953 73.2869565 75.9420561 72.973913 76.9626168 72.8173913 77.9831776 72.8173913 79.0037383 72.5043478 80.1700935 72.3478261 81.1906542 71.8782609 82.0654206 71.5652174 82.9401869 71.2521739 83.8149533 71.0956522 84.6897196 70.7826087 85.7102804 70.4695652 86.7308411 70.1565217 87.7514019 70 88.7719626 70.3130435 89.2093458 70.7826087 89.5009346 70.4695652 90.3757009 70.3130435 91.2504673 71.0956522 91.3962617 71.8782609 91.3962617 72.3478261 91.3962617 72.973913 91.2504673 73.6 91.8336449 74.226087 92.271028 75.1652174 92.7084112 76.2608696 93 76.4173913 93"></polygon>
                <polygon id="Fill-30" fill="#FFFFFF" points="141 92 140.666667 91.6666667 140.333333 91.1666667 139.666667 91.1666667 139 91 139.666667 91.3333333 140.444444 91.5 140.666667 91.8333333"></polygon>
                <polygon id="Stroke-31" stroke="#FFFFFF" stroke-width="2" stroke-linecap="round" stroke-linejoin="round" points="141 92 140.666667 91.6666667 140.333333 91.1666667 139.666667 91.1666667 139 91 139.666667 91.3333333 140.444444 91.5 140.666667 91.8333333"></polygon>
                <polygon id="Fill-32" fill="#FFFFFF" points="120.258427 90 120.988764 89.7080292 121.865169 89.4160584 122.595506 88.9781022 123.47191 88.540146 124.202247 87.9562044 124.932584 87.3722628 125.516854 86.7883212 126.101124 86.0583942 126.247191 85.0364964 126.393258 84.0145985 126.393258 82.9927007 126.539326 81.9708029 126.685393 80.9489051 126.977528 79.9270073 127.41573 79.1970803 128 78.3211679 127.561798 77.5912409 127.123596 76.7153285 126.539326 75.9854015 126.101124 75.1094891 125.662921 74.2335766 125.370787 73.3576642 124.932584 72.6277372 124.494382 71.7518248 124.05618 70.8759124 123.617978 70 123.47191 70.4379562 123.325843 70.729927 123.617978 71.7518248 124.05618 72.6277372 124.494382 73.5036496 124.932584 74.2335766 125.078652 75.4014599 125.224719 76.4233577 125.370787 77.5912409 125.516854 78.7591241 125.224719 79.7810219 125.078652 80.8029197 124.494382 81.6788321 124.05618 82.4087591 123.47191 83.1386861 122.88764 83.7226277 122.303371 84.4525547 121.719101 85.0364964 120.988764 85.7664234 120.404494 86.350365 119.674157 86.350365 118.94382 86.2043796 118.359551 85.4744526 117.775281 84.7445255 117.337079 83.8686131 117.044944 82.9927007 117.191011 82.1167883 117.337079 81.0948905 117.337079 79.9270073 117.337079 78.7591241 117.483146 77.7372263 117.775281 76.7153285 117.191011 75.9854015 116.606742 75.2554745 115.730337 75.5474453 115 75.8394161 115.438202 76.5693431 115.876404 77.1532847 116.314607 77.5912409 116.752809 78.0291971 116.460674 79.0510949 116.168539 79.9270073 115.876404 81.0948905 115.730337 82.1167883 115.876404 83.2846715 116.022472 84.3065693 116.168539 85.3284672 116.460674 86.350365 116.752809 87.3722628 117.044944 88.3941606 117.775281 88.9781022 118.505618 89.4160584 119.382022 89.7080292"></polygon>
                <polygon id="Fill-34" fill="#FFFFFF" points="173.962963 89 175 89 176.037037 88.8487395 176.777778 88.394958 177.666667 87.9411765 177.222222 87.6386555 176.777778 87.3361345 175.740741 87.3361345 174.703704 87.1848739 173.518519 87.3361345 172.481481 87.3361345 171.592593 87.0336134 170.703704 86.5798319 170.259259 86.4285714 169.814815 86.1260504 169.666667 85.2184874 169.518519 84.3109244 169.666667 83.4033613 169.962963 82.4957983 169.814815 81.8907563 169.666667 81.2857143 170.111111 80.5294118 170.555556 79.6218487 170.851852 78.8655462 171.148148 77.9579832 171.592593 77.0504202 172.037037 76.1428571 172.62963 75.5378151 173.222222 74.7815126 173.814815 74.1764706 174.555556 73.4201681 175.148148 73.7226891 175.888889 74.0252101 175.592593 74.9327731 175.296296 75.6890756 174.555556 76.4453782 173.962963 77.0504202 173.074074 77.5042017 172.333333 77.9579832 172.777778 78.4117647 173.37037 78.7142857 174.111111 78.4117647 174.851852 77.9579832 175.592593 77.5042017 176.481481 77.0504202 177.222222 76.4453782 177.962963 75.8403361 178.407407 75.0840336 179 74.3277311 178.407407 73.5714286 177.962963 72.6638655 177.222222 72.0588235 176.62963 71.4537815 175.888889 71.302521 175.148148 71 174.111111 71.4537815 173.222222 71.7563025 172.333333 72.210084 171.444444 72.512605 170.851852 73.2689076 170.259259 74.0252101 169.666667 74.7815126 169.222222 75.5378151 168.777778 76.4453782 168.333333 77.2016807 168.037037 78.2605042 167.888889 79.1680672 167.592593 80.0756303 167.444444 80.9831933 167.148148 82.1932773 167 83.2521008 167 84.3109244 167 85.2184874 167.444444 86.1260504 167.888889 86.8823529 168.481481 87.6386555 169.222222 88.2436975 170.111111 88.5462185 171.148148 88.8487395 172.185185 89 173.37037 89 173.666667 89"></polygon>
                <path d="M40.9493594,86 L41.7237063,85.5616438 C42.1108798,85.2694064 42.9626614,84.7579909 43.4272696,84.5388128 C43.8918777,84.3196347 44.7436594,83.8812785 45.1308328,83.6621005 C45.5180063,83.369863 46.3697879,82.8584475 46.8343961,82.6392694 C47.2990043,82.4200913 48.1507859,81.9817352 48.5379594,81.7625571 C49.0025675,81.543379 49.9317839,81.1780822 50.396392,81.0319635 C50.8610002,80.8127854 51.7127818,80.3013699 52.0999553,80.0091324 C52.4871288,79.716895 53.2614757,79.2054795 53.6486492,78.9863014 C54.1132573,78.7671233 54.965039,78.2557078 55.3522124,77.9634703 C55.7393859,77.6712329 56.5137328,77.1598174 56.9009063,76.9406393 C57.3655145,76.7214612 57.9075573,76.3561644 57.984992,76.2100457 C58.0624267,75.9908676 57.8301226,75.4063927 57.5203838,75.0410959 C57.2880798,74.6027397 56.7460369,73.7990868 56.4362981,73.43379 C56.2039941,73.0684932 55.6619512,72.3378995 55.3522124,71.9726027 C55.1199083,71.5342466 54.5778655,70.7305936 54.2681267,70.3652968 C54.0358226,70 53.5712145,69.2694064 53.3389104,68.9041096 C53.1066063,68.4657534 52.5645634,67.6621005 52.2548247,67.2968037 C52.0225206,66.8584475 51.4804777,66.0547945 51.170739,65.6894977 C50.9384349,65.3242009 50.396392,64.5936073 50.0866532,64.2283105 C49.8543492,63.7899543 49.3123063,62.9863014 49.0025675,62.6210046 C48.7702635,62.2557078 48.2282206,61.5251142 47.9184818,61.1598174 C47.6861777,60.7945205 47.1441349,60.0639269 46.8343961,59.6986301 C46.602092,59.260274 46.0600492,58.456621 45.7503104,58.0913242 C45.5180063,57.7260274 44.9759635,56.9954338 44.6662247,56.630137 L44.2016165,55.7534247 L44.6662247,56.1917808 C44.8985288,56.3378995 45.2082675,56.4840183 45.2857022,56.4840183 C45.4405716,56.4840183 45.2857022,56.1187215 44.9759635,55.7534247 C44.7436594,55.3150685 44.2790512,54.8767123 44.0467471,54.8767123 C43.814443,54.803653 43.3498349,54.5844749 43.1175308,54.4383562 L42.807792,54 L42.6529226,54.8767123 C42.5754879,55.2420091 42.4980533,56.1187215 42.4980533,56.630137 C42.5754879,57.1415525 42.4206186,58.1643836 42.1883145,58.6757991 C42.0334451,59.1141553 41.8785757,59.8447489 41.8785757,60.1369863 C41.9560104,60.4292237 41.801141,61.2328767 41.5688369,61.7442922 C41.4139675,62.1826484 41.3365328,62.7671233 41.4139675,62.913242 C41.4914022,62.9863014 41.7237063,63.2054795 41.8785757,63.3515982 C42.0334451,63.4246575 41.8785757,63.9360731 41.5688369,64.3744292 C41.3365328,64.739726 41.1042288,65.6164384 41.1042288,66.1278539 C41.1816635,66.6392694 41.2590982,67.6621005 41.2590982,68.173516 C41.2590982,68.6849315 41.4914022,69.4885845 41.7237063,69.7808219 C41.9560104,70 41.9560104,70.2191781 41.7237063,70.2191781 C41.5688369,70.2191781 41.1816635,70.2922374 40.9493594,70.3652968 C40.7170553,70.4383562 40.4847512,71.0228311 40.4847512,71.5342466 C40.4847512,71.9726027 40.4847512,72.9954338 40.4847512,73.5799087 C40.5621859,74.0913242 40.5621859,75.1872146 40.4847512,75.7716895 C40.4847512,76.3561644 40.4073165,77.4520548 40.3298818,77.9634703 C40.2524471,78.4018265 40.2524471,79.4246575 40.3298818,80.0091324 C40.4847512,80.5205479 40.4847512,81.543379 40.3298818,82.0547945 C40.2524471,82.56621 40.0975777,83.5890411 40.0201431,84.1004566 C39.9427084,84.6118721 40.0975777,85.3424658 40.3298818,85.5616438 L40.9493594,86 Z" id="Fill-36" fill="#000000"></path>
                <path d="M40.9493594,86 L41.7237063,85.5616438 C42.1108798,85.2694064 42.9626614,84.7579909 43.4272696,84.5388128 C43.8918777,84.3196347 44.7436594,83.8812785 45.1308328,83.6621005 C45.5180063,83.369863 46.3697879,82.8584475 46.8343961,82.6392694 C47.2990043,82.4200913 48.1507859,81.9817352 48.5379594,81.7625571 C49.0025675,81.543379 49.9317839,81.1780822 50.396392,81.0319635 C50.8610002,80.8127854 51.7127818,80.3013699 52.0999553,80.0091324 C52.4871288,79.716895 53.2614757,79.2054795 53.6486492,78.9863014 C54.1132573,78.7671233 54.965039,78.2557078 55.3522124,77.9634703 C55.7393859,77.6712329 56.5137328,77.1598174 56.9009063,76.9406393 C57.3655145,76.7214612 57.9075573,76.3561644 57.984992,76.2100457 C58.0624267,75.9908676 57.8301226,75.4063927 57.5203838,75.0410959 C57.2880798,74.6027397 56.7460369,73.7990868 56.4362981,73.43379 C56.2039941,73.0684932 55.6619512,72.3378995 55.3522124,71.9726027 C55.1199083,71.5342466 54.5778655,70.7305936 54.2681267,70.3652968 C54.0358226,70 53.5712145,69.2694064 53.3389104,68.9041096 C53.1066063,68.4657534 52.5645634,67.6621005 52.2548247,67.2968037 C52.0225206,66.8584475 51.4804777,66.0547945 51.170739,65.6894977 C50.9384349,65.3242009 50.396392,64.5936073 50.0866532,64.2283105 C49.8543492,63.7899543 49.3123063,62.9863014 49.0025675,62.6210046 C48.7702635,62.2557078 48.2282206,61.5251142 47.9184818,61.1598174 C47.6861777,60.7945205 47.1441349,60.0639269 46.8343961,59.6986301 C46.602092,59.260274 46.0600492,58.456621 45.7503104,58.0913242 C45.5180063,57.7260274 44.9759635,56.9954338 44.6662247,56.630137 L44.2016165,55.7534247 L44.6662247,56.1917808 C44.8985288,56.3378995 45.2082675,56.4840183 45.2857022,56.4840183 C45.4405716,56.4840183 45.2857022,56.1187215 44.9759635,55.7534247 C44.7436594,55.3150685 44.2790512,54.8767123 44.0467471,54.8767123 C43.814443,54.803653 43.3498349,54.5844749 43.1175308,54.4383562 L42.807792,54 L42.6529226,54.8767123 C42.5754879,55.2420091 42.4980533,56.1187215 42.4980533,56.630137 C42.5754879,57.1415525 42.4206186,58.1643836 42.1883145,58.6757991 C42.0334451,59.1141553 41.8785757,59.8447489 41.8785757,60.1369863 C41.9560104,60.4292237 41.801141,61.2328767 41.5688369,61.7442922 C41.4139675,62.1826484 41.3365328,62.7671233 41.4139675,62.913242 C41.4914022,62.9863014 41.7237063,63.2054795 41.8785757,63.3515982 C42.0334451,63.4246575 41.8785757,63.9360731 41.5688369,64.3744292 C41.3365328,64.739726 41.1042288,65.6164384 41.1042288,66.1278539 C41.1816635,66.6392694 41.2590982,67.6621005 41.2590982,68.173516 C41.2590982,68.6849315 41.4914022,69.4885845 41.7237063,69.7808219 C41.9560104,70 41.9560104,70.2191781 41.7237063,70.2191781 C41.5688369,70.2191781 41.1816635,70.2922374 40.9493594,70.3652968 C40.7170553,70.4383562 40.4847512,71.0228311 40.4847512,71.5342466 C40.4847512,71.9726027 40.4847512,72.9954338 40.4847512,73.5799087 C40.5621859,74.0913242 40.5621859,75.1872146 40.4847512,75.7716895 C40.4847512,76.3561644 40.4073165,77.4520548 40.3298818,77.9634703 C40.2524471,78.4018265 40.2524471,79.4246575 40.3298818,80.0091324 C40.4847512,80.5205479 40.4847512,81.543379 40.3298818,82.0547945 C40.2524471,82.56621 40.0975777,83.5890411 40.0201431,84.1004566 C39.9427084,84.6118721 40.0975777,85.3424658 40.3298818,85.5616438 L40.9493594,86 Z" id="Stroke-37" stroke="#000000" stroke-width="2" stroke-linecap="round" stroke-linejoin="round"></path>
                <polygon id="Fill-38" fill="#FFFFFF" points="181 87 181.909091 86.7777778 182.818182 86.4444444 182.818182 86.2222222 183 86 181.909091 86.4444444 181 86.7777778 181 86.8888889"></polygon>
                <polygon id="Stroke-39" stroke="#FFFFFF" stroke-width="2" stroke-linecap="round" stroke-linejoin="round" points="181 87 181.909091 86.7777778 182.818182 86.4444444 182.818182 86.2222222 183 86 181.909091 86.4444444 181 86.7777778 181 86.8888889"></polygon>
                <polygon id="Fill-40" fill="#FFFFFF" points="105.959184 86 106.557823 85.5539715 107.306122 85.107943 107.006803 84.2158859 106.857143 83.3238289 106.108844 82.8778004 105.360544 82.4317719 104.612245 81.9857434 103.863946 81.3910387 103.265306 80.6476578 102.666667 79.904277 102.666667 78.8635438 102.816327 77.8228106 102.517007 76.7820774 102.367347 75.7413442 102.367347 74.700611 102.517007 73.5112016 102.666667 72.7678208 102.816327 71.8757637 102.965986 70.8350305 103.115646 69.7942974 103.265306 68.7535642 103.564626 67.712831 103.714286 66.6720978 104.013605 65.6313646 104.163265 64.5906314 104.312925 63.5498982 104.462585 62.6578411 104.612245 61.6171079 104.911565 60.5763747 105.210884 59.5356415 105.210884 58.4949084 105.210884 57.305499 105.510204 56.413442 105.809524 55.3727088 106.108844 54.4806517 106.408163 53.5885947 106.408163 52.5478615 106.408163 51.3584521 106.557823 50.1690428 106.707483 48.9796334 106.857143 47.9389002 107.006803 46.7494908 107.306122 45.8574338 107.605442 44.8167006 107.755102 43.6272912 107.904762 42.4378819 107.904762 41.3971487 108.054422 40.3564155 108.353741 39.4643585 108.802721 38.4236253 108.952381 37.5315682 109.102041 36.490835 108.802721 35.598778 108.503401 34.5580448 108.503401 33.3686354 108.503401 32.1792261 108.503401 30.9898167 108.653061 29.8004073 108.653061 28.610998 108.802721 27.2729124 108.952381 26.3808554 109.102041 25.3401222 109.401361 24.4480652 109.85034 23.5560081 109.85034 22.8126273 110 21.9205703 109.70068 21.0285132 109.401361 19.98778 109.102041 19.2443992 108.802721 18.5010183 108.353741 17.6089613 108.054422 16.7169043 108.503401 16.5682281 108.952381 16.2708758 108.353741 15.5274949 107.904762 14.6354379 107.306122 13.892057 106.857143 13.1486762 106.108844 13.1486762 105.510204 13 105.809524 13.892057 106.258503 14.7841141 105.809524 15.3788187 105.360544 15.8248473 105.659864 16.8655804 106.108844 17.7576375 106.108844 18.9470468 106.258503 20.1364562 106.108844 21.3258656 105.959184 22.5152749 106.108844 23.5560081 106.408163 24.5967413 106.557823 25.7861507 106.707483 26.8268839 106.707483 28.1649695 106.707483 29.503055 106.557823 30.6924644 106.557823 31.8818737 106.258503 32.9226069 105.959184 33.9633401 106.108844 35.1527495 106.258503 36.1934827 106.258503 37.5315682 106.258503 38.7209776 106.108844 40.0590631 106.108844 41.2484725 105.959184 42.4378819 105.809524 43.4786151 105.659864 44.5193483 105.510204 45.5600815 105.210884 46.6008147 105.061224 47.6415479 104.911565 48.8309572 104.761905 49.8716904 104.462585 50.9124236 104.312925 51.8044807 104.013605 52.8452138 103.863946 53.885947 103.564626 55.0753564 103.414966 56.1160896 103.414966 57.305499 103.414966 58.3462322 103.265306 59.3869654 103.265306 60.4276986 102.965986 61.4684318 102.666667 62.509165 102.367347 63.5498982 102.217687 64.5906314 102.217687 65.7800407 102.217687 66.9694501 101.768707 67.8615071 101.469388 68.7535642 100.870748 68.604888 100.272109 68.3075356 99.3741497 67.8615071 98.6258503 67.2668024 97.7278912 66.9694501 96.829932 66.5234216 95.7823129 66.6720978 94.7346939 66.8207739 93.6870748 67.1181263 92.7891156 67.4154786 91.8911565 67.4154786 91.1428571 67.4154786 90.244898 68.0101833 89.4965986 68.4562118 89.047619 69.3482688 88.5986395 70.0916497 88.2993197 71.1323829 88 72.1731161 88.2993197 73.2138493 88.5986395 74.1059063 89.047619 74.8492872 89.6462585 75.592668 90.5442177 76.0386965 91.5918367 76.3360489 92.6394558 76.6334012 93.6870748 76.7820774 94.7346939 76.4847251 95.7823129 76.1873727 96.5306122 76.4847251 97.4285714 76.7820774 98.1768707 77.3767821 98.9251701 77.8228106 98.4761905 76.9307536 98.0272109 76.0386965 97.1292517 75.592668 96.3809524 75.1466395 95.3333333 75.4439919 94.4353741 75.592668 93.3877551 75.4439919 92.4897959 75.2953157 91.8911565 74.700611 91.292517 73.9572301 91.1428571 72.9164969 90.9931973 71.8757637 91.4421769 71.1323829 92.0408163 70.389002 92.6394558 69.7942974 93.3877551 69.0509165 94.4353741 68.9022403 95.6326531 68.7535642 96.3809524 68.4562118 97.2789116 68.1588595 97.877551 68.9022403 98.6258503 69.496945 99.2244898 70.2403259 99.8231293 70.8350305 100.122449 71.8757637 100.421769 72.9164969 100.272109 73.9572301 100.272109 74.9979633 100.122449 76.0386965 100.122449 77.0794297 100.571429 77.9714868 101.170068 78.7148676 101.619048 79.6069246 102.068027 80.3503055 102.517007 81.2423625 102.965986 82.1344196 103.564626 82.8778004 104.163265 83.4725051 104.761905 84.2158859 105.360544 84.8105906 105.659864 85.4052953"></polygon>
                <polygon id="Fill-42" fill="#FFFFFF" points="174.090909 80 175 79.6 175.909091 79 176.454545 78.6 177 78 175.909091 78.6 174.818182 79.2 173.909091 78.8 173 78.2 173.545455 79.2"></polygon>
                <polygon id="Stroke-43" stroke="#FFFFFF" stroke-width="2" stroke-linecap="round" stroke-linejoin="round" points="174.090909 80 175 79.6 175.909091 79 176.454545 78.6 177 78 175.909091 78.6 174.818182 79.2 173.909091 78.8 173 78.2 173.545455 79.2"></polygon>
                <polygon id="Fill-44" fill="#FFFFFF" points="203 72 204 71.6 205 71 204.4 71.2 203.8 71.2 203.4 71.6"></polygon>
                <polygon id="Stroke-45" stroke="#FFFFFF" stroke-width="2" stroke-linecap="round" stroke-linejoin="round" points="203 72 204 71.6 205 71 204.4 71.2 203.8 71.2 203.4 71.6"></polygon>
                <polygon id="Fill-46" fill="#000000" points="189 71 189 70 189.5 69 189 70"></polygon>
                <polygon id="Stroke-47" stroke="#000000" stroke-width="2" stroke-linecap="round" stroke-linejoin="round" points="189 71 189 70 189.5 69 189 70"></polygon>
                <polygon id="Fill-48" fill="#FFFFFF" points="45 61 44.5 60.6 44 60 44.5 60.6"></polygon>
                <polygon id="Stroke-49" stroke="#FFFFFF" stroke-width="2" stroke-linecap="round" stroke-linejoin="round" points="45 61 44.5 60.6 44 60 44.5 60.6"></polygon>
                <polygon id="Fill-50" fill="#FFFFFF" points="205 60 205.166667 59.5 205.5 59 205.166667 59.5"></polygon>
                <polygon id="Stroke-51" stroke="#FFFFFF" stroke-width="2" stroke-linecap="round" stroke-linejoin="round" points="205 60 205.166667 59.5 205.5 59 205.166667 59.5"></polygon>
                <path d="M41.2174823,44 L41.4349645,43.3775474 C41.5980762,43.0663212 41.8155585,42.2104489 41.869929,41.6658029 C41.9786702,41.1211569 42.0330407,40.3430912 41.9786702,40.1096715 C41.9242996,39.8762518 41.6524468,40.0318649 41.4349645,40.4208978 C41.2174823,40.732124 41,41.5879963 41,42.1326423 C41.0543706,42.5994817 41.1087411,43.2997409 41.1087411,43.5331606 L41.2174823,44 Z" id="Fill-52" fill="#000000"></path>
                <path d="M41.2174823,44 L41.4349645,43.3775474 C41.5980762,43.0663212 41.8155585,42.2104489 41.869929,41.6658029 C41.9786702,41.1211569 42.0330407,40.3430912 41.9786702,40.1096715 C41.9242996,39.8762518 41.6524468,40.0318649 41.4349645,40.4208978 C41.2174823,40.732124 41,41.5879963 41,42.1326423 C41.0543706,42.5994817 41.1087411,43.2997409 41.1087411,43.5331606 L41.2174823,44 Z" id="Stroke-53" stroke="#000000" stroke-width="2" stroke-linecap="round" stroke-linejoin="round"></path>
                <polygon id="Fill-54" fill="#FFFFFF" points="213 41 213.5 40.6 214 40.0666667 213.875 39.5333333 213.875 39 213.75 39.6666667 213.75 40.2 213.375 40.6"></polygon>
                <polygon id="Stroke-55" stroke="#FFFFFF" stroke-width="2" stroke-linecap="round" stroke-linejoin="round" points="213 41 213.5 40.6 214 40.0666667 213.875 39.5333333 213.875 39 213.75 39.6666667 213.75 40.2 213.375 40.6"></polygon>
                <polygon id="Fill-56" fill="#000000" points="42 35.5 42 35.3333333 42 35 42 35.3333333"></polygon>
                <polygon id="Stroke-57" stroke="#000000" stroke-width="2" stroke-linecap="round" stroke-linejoin="round" points="42 35.5 42 35.3333333 42 35 42 35.3333333"></polygon>
                <path d="M42.9386286,36 L42.9386286,34.9090909 C43.0950667,34.3636364 42.9386286,33.3636364 42.6257524,32.9090909 L42.3128762,32 L42,33.2727273 C42,33.8181818 42.1564381,34.8181818 42.3128762,35.2727273 L42.9386286,36 Z" id="Fill-58" fill="#000000"></path>
                <path d="M42.9386286,36 L42.9386286,34.9090909 C43.0950667,34.3636364 42.9386286,33.3636364 42.6257524,32.9090909 L42.3128762,32 L42,33.2727273 C42,33.8181818 42.1564381,34.8181818 42.3128762,35.2727273 L42.9386286,36 Z" id="Stroke-59" stroke="#000000" stroke-width="2" stroke-linecap="round" stroke-linejoin="round"></path>
                <polygon id="Fill-60" fill="#FFFFFF" points="105 28.5 105 28.3333333 105 28 105 28.3333333"></polygon>
                <polygon id="Stroke-61" stroke="#FFFFFF" stroke-width="2" stroke-linecap="round" stroke-linejoin="round" points="105 28.5 105 28.3333333 105 28 105 28.3333333"></polygon>
                <polygon id="Fill-62" fill="#000000" points="179.5 28 179.166667 27.5 179 27 179.166667 27.5"></polygon>
                <polygon id="Stroke-63" stroke="#000000" stroke-width="2" stroke-linecap="round" stroke-linejoin="round" points="179.5 28 179.166667 27.5 179 27 179.166667 27.5"></polygon>
                <polygon id="Fill-64" fill="#FFFFFF" points="15.5 20 15.25 19.6 15 19 15.25 19.6"></polygon>
                <polygon id="Stroke-65" stroke="#FFFFFF" stroke-width="2" stroke-linecap="round" stroke-linejoin="round" points="15.5 20 15.25 19.6 15 19 15.25 19.6"></polygon>
                <polygon id="Fill-66" fill="#FFFFFF" points="11.5 13.5 11.25 13.5 11 13 11.25 13.5"></polygon>
                <polygon id="Stroke-67" stroke="#FFFFFF" stroke-width="2" stroke-linecap="round" stroke-linejoin="round" points="11.5 13.5 11.25 13.5 11 13 11.25 13.5"></polygon>
                <path d="M229,9 L229.444444,8.50794726 L230,8.01589452 L229.888889,8.01589452 C229.833333,7.93388573 229.555556,8.1799121 229.333333,8.50794726 L229,9 Z" id="Fill-68" fill="#000000"></path>
                <path d="M229,9 L229.444444,8.50794726 L230,8.01589452 L229.888889,8.01589452 C229.833333,7.93388573 229.555556,8.1799121 229.333333,8.50794726 L229,9 Z" id="Stroke-69" stroke="#000000" stroke-width="2" stroke-linecap="round" stroke-linejoin="round"></path>
            </g>
        </g>
    </g>
</svg>